<?xml version="1.0" encoding="UTF-8" standalone="no"?><!DOCTYPE svg PUBLIC "-//W3C//DTD SVG 1.1//EN" "http://www.w3.org/Graphics/SVG/1.1/DTD/svg11.dtd"><svg width="100%" height="100%" viewBox="0 0 200 200" version="1.1" xmlns="http://www.w3.org/2000/svg" xmlns:xlink="http://www.w3.org/1999/xlink" xml:space="preserve" xmlns:serif="http://www.serif.com/" style="fill-rule:evenodd;clip-rule:evenodd;stroke-linejoin:round;stroke-miterlimit:2;"><g><path d="M200,40c0,-22.077 -17.923,-40 -40,-40l-120,0c-22.077,0 -40,17.923 -40,40l-0,120c-0,22.077 17.923,40 40,40l120,0c22.077,0 40,-17.923 40,-40l0,-120Z" style="fill:#ebebeb;"/><path d="M135.895,94.522c-0.647,-0.31 -1.303,-0.608 -1.968,-0.893c-1.157,-21.334 -12.815,-33.547 -32.388,-33.672c-0.089,-0.001 -0.177,-0.001 -0.266,-0.001c-11.707,0 -21.444,4.998 -27.437,14.091l10.765,7.385c4.477,-6.793 11.503,-8.241 16.678,-8.241c0.059,0 0.119,0 0.178,0.001c6.445,0.041 11.309,1.915 14.456,5.569c2.291,2.66 3.823,6.337 4.582,10.976c-5.715,-0.971 -11.894,-1.269 -18.5,-0.891c-18.61,1.072 -30.574,11.926 -29.77,27.007c0.407,7.65 4.219,14.231 10.73,18.531c5.506,3.634 12.597,5.411 19.967,5.009c9.733,-0.534 17.368,-4.247 22.694,-11.037c4.046,-5.156 6.604,-11.838 7.734,-20.258c4.638,2.8 8.076,6.483 9.974,10.911c3.228,7.528 3.417,19.897 -6.676,29.982c-8.843,8.834 -19.473,12.656 -35.537,12.774c-17.82,-0.132 -31.297,-5.847 -40.059,-16.986c-8.206,-10.431 -12.446,-25.496 -12.604,-44.779c0.158,-19.283 4.398,-34.349 12.604,-44.779c8.762,-11.139 22.239,-16.854 40.058,-16.986c17.949,0.133 31.661,5.875 40.759,17.068c4.461,5.489 7.824,12.391 10.041,20.439l12.615,-3.365c-2.688,-9.907 -6.916,-18.443 -12.671,-25.522c-11.663,-14.35 -28.721,-21.703 -50.7,-21.855l-0.088,-0c-21.934,0.152 -38.8,7.533 -50.131,21.937c-10.084,12.818 -15.285,30.653 -15.459,53.01l-0.001,0.053l0.001,0.053c0.174,22.356 5.375,40.192 15.459,53.01c11.331,14.404 28.197,21.785 50.131,21.937l0.088,-0c19.501,-0.135 33.246,-5.241 44.569,-16.554c14.815,-14.801 14.369,-33.353 9.486,-44.742c-3.503,-8.167 -10.182,-14.801 -19.314,-19.182Zm-33.67,31.655c-8.156,0.46 -16.629,-3.201 -17.047,-11.043c-0.31,-5.814 4.137,-12.301 17.548,-13.074c1.536,-0.089 3.043,-0.132 4.523,-0.132c4.871,0 9.428,0.473 13.571,1.379c-1.545,19.298 -10.609,22.432 -18.595,22.87Z" style="fill-rule:nonzero;"/></g></svg>